# xmcd
#
# Track frame offsets: 
#        150
#        16166
#        29401
#        41290
#        59263
#        73175
#        85713
#        99995
#        117401
#        131150
#        151896
#
# Disc length: 2227 seconds
#
# Revision: 2
# Processed by: cddbd v1.5.2PL0 Copyright (c) Steve Scherf et al.
# Submitted via: ExactAudioCopyFreeDBPlugin 1.0
#
DISCID=8708b10b
DTITLE=Olivia Newton-John - 1975 - Have You Never Been Mellow
DYEAR=1975
DGENRE=Country
TTITLE0=Have You Never Been Mellow
TTITLE1=Loving Arms
TTITLE2=Lifestream
TTITLE3=Goodbye Again
TTITLE4=Water Under The Bridge
TTITLE5=I Never Did Sing You A Love Song
TTITLE6=It's So Easy
TTITLE7=The Air That I Breathe
TTITLE8=Follow Me
TTITLE9=And In The Morning
TTITLE10=Please Mr. Please
EXTD=
EXTT0=
EXTT1=
EXTT2=
EXTT3=
EXTT4=
EXTT5=
EXTT6=
EXTT7=
EXTT8=
EXTT9=
EXTT10=
PLAYORDER=
